<?xml version="1.0" encoding="UTF-8"?>
<svg width="24px" height="24px" viewBox="0 0 24 24" version="1.1" xmlns="http://www.w3.org/2000/svg" xmlns:xlink="http://www.w3.org/1999/xlink">
    <title>ic/ic_answer</title>
    <defs>
        <path d="M12.0218618,0.75 C18.6564562,0.75 24.0440871,5.70385715 23.999728,11.7285139 C23.9914143,14.2633825 23.0573161,16.7078905 21.3730875,18.6023566 L21.3730875,18.6023566 L19.6808969,22.9310049 L13.8040432,22.5732233 C13.2145258,22.6639162 12.6188581,22.7087128 12.0224072,22.7072096 C5.38763097,22.7072096 0,17.7980752 0,11.7283321 C0,5.65858903 5.38763099,0.75 12.0218618,0.75 Z M16.48,14.43 L7.352,14.43 L7.352,18.7 L8.668,18.7 L8.668,18.154 L15.22,18.154 L15.22,18.7 L16.48,18.7 L16.48,14.43 Z M15.22,15.522 L15.22,17.062 L8.668,17.062 L8.668,15.522 L15.22,15.522 Z M12.49,9.614 L11.342,9.614 C10.502,10.342 9.592,10.9626667 8.612,11.476 C7.73311111,11.9037778 6.83801852,12.2667407 5.92672222,12.5648889 L5.378,12.736 L5.882,13.884 C6.60626667,13.6525333 7.32157333,13.37328 8.02792,13.04624 L8.556,12.792 L8.556,13.506 L15.22,13.506 L15.22,12.792 C16.0973333,13.2306667 17.012,13.5946667 17.964,13.884 L18.398,12.68 C17.1566667,12.3533333 15.9713333,11.8773333 14.842,11.252 C14.09,10.884 13.4065714,10.4302857 12.7917143,9.89085714 L12.49,9.614 Z M11.944,10.608 C12.2706667,10.9346667 12.616,11.224 12.98,11.476 C13.4933333,11.84 14.0253333,12.1526667 14.576,12.414 L9.27,12.414 C9.81133333,12.1153333 10.3386667,11.8026667 10.852,11.476 C11.2533333,11.224 11.6173333,10.9346667 11.944,10.608 Z M8.122,6.002 C7.79533333,6.73933333 7.394,7.43466667 6.918,8.088 C6.617,8.55 6.295,8.993625 5.952,9.418875 L5.602,9.838 L6.694,10.552 C7.079,10.083 7.443,9.595625 7.786,9.089875 L8.122,8.578 L8.878,8.578 L8.556,8.746 C8.77377778,9.06333333 8.98325926,9.38688889 9.18444444,9.71666667 L9.48,10.216 L10.572,9.726 C10.404,9.45844444 10.236,9.19918519 10.068,8.94822222 L9.816,8.578 L12.056,8.578 L12.056,7.43 L8.822,7.43 C8.94644444,7.18733333 9.07088889,6.93637037 9.19533333,6.67711111 L9.382,6.282 L8.122,6.002 Z M13.316,6.002 C12.9648333,6.99833333 12.5029062,7.93392708 11.9302187,8.80878125 L11.678,9.18 L12.882,9.67 L13.526,8.578 L14.576,8.578 L14.24,8.746 C14.6786667,9.28733333 15.0986667,9.852 15.5,10.44 L16.536,9.838 L15.556,8.578 L18.174,8.578 L18.174,7.43 L14.128,7.43 C14.2524444,7.16244444 14.3685926,6.89488889 14.4764444,6.62733333 L14.632,6.226 L13.316,6.002 Z" id="path-1"></path>
    </defs>
    <g id="ic/ic_answer" stroke="none" stroke-width="1" fill="none" fill-rule="evenodd">
        <mask id="mask-2" fill="white">
            <use xlink:href="#path-1"></use>
        </mask>
        <use id="形状结合" fill="#46B1E3" xlink:href="#path-1"></use>
    </g>
</svg>