<?xml version="1.0" encoding="UTF-8"?>
<svg width="24px" height="24px" viewBox="0 0 24 24" version="1.1" xmlns="http://www.w3.org/2000/svg" xmlns:xlink="http://www.w3.org/1999/xlink">
    <title>ic/ic_question</title>
    <g id="ic/ic_question" stroke="none" stroke-width="1" fill="none" fill-rule="evenodd">
        <path d="M12.022,0.75 L12.3271732,0.753503392 C18.8209437,0.902679818 24.0434047,5.79654418 23.999728,11.7285139 C23.9914143,14.2633825 23.0573161,16.7078905 21.3730875,18.6023566 L21.3730875,18.6023566 L19.6808969,22.9310049 L13.8040432,22.5732233 C13.2145258,22.6639162 12.6188581,22.7087128 12.0224072,22.7072096 C5.38763097,22.7072096 0,17.7980752 0,11.7283321 C0,5.65858903 5.38763099,0.75 12.0224072,0.75 L12.021,0.75 L12.0222372,6.5212734 C11.3203148,6.50554042 10.6277274,6.71901355 10.0532204,7.13531917 L9.88498935,7.26587925 C9.12591502,7.89274743 8.68528379,8.82498265 8.68274862,9.80943738 C8.68274862,10.3014226 9.08158143,10.7002554 9.57356663,10.7002554 C10.0655518,10.7002554 10.4643846,10.3014226 10.4643846,9.80943738 C10.4786105,9.35675805 10.6900885,8.93293863 11.0432346,8.64937418 C11.3994262,8.3460838 11.8785378,8.23008479 12.3340117,8.33686068 C12.9109626,8.46872497 13.3611145,8.91986656 13.4917115,9.49710568 C13.6646594,10.217585 13.2864497,10.9565605 12.6008935,11.237655 C11.7025593,11.6131156 11.1214837,12.4956574 11.1315892,13.469245 L11.1315892,13.469245 L11.1315892,14.5845855 C11.1323861,15.0765352 11.5304601,15.4754216 12.0224072,15.4772215 C12.2564533,15.4820656 12.481687,15.3879686 12.6427286,15.2180667 C12.8037703,15.0481649 12.8856809,14.818219 12.8683207,14.5847673 L12.8683207,13.469245 C12.8546121,13.2205202 12.9964924,12.9893399 13.2244661,12.8889407 C14.6939522,12.3088182 15.4953248,10.7020734 15.1837203,9.14005128 C14.8995396,7.87341011 13.9117851,6.88339149 12.645798,6.59631135 C12.4390107,6.55071899 12.2302141,6.52593502 12.0222372,6.5212734 L12.022,0.75 Z M12.1875,16.125 C11.669733,16.125 11.25,16.544733 11.25,17.0625 C11.25,17.580267 11.669733,18 12.1875,18 C12.705267,18 13.125,17.580267 13.125,17.0625 C13.125,16.544733 12.705267,16.125 12.1875,16.125 Z" id="形状结合" fill="#E64566"></path>
    </g>
</svg>